Coordinates
version=1
nRows=17
nColumns=63
inDegrees=yes

Units are S.I. units (second, meters, Newtons, ...)
If the header above contains a line with 'inDegrees', this indicates whether rotational values are in degrees (yes) or radians (no).

endheader
time	pelvis_tilt	pelvis_list	pelvis_rotation	pelvis_tx	pelvis_ty	pelvis_tz	hip_flexion_r	hip_adduction_r	hip_rotation_r	knee_angle_r	knee_angle_r_beta	ankle_angle_r	subtalar_angle_r	mtp_angle_r	hip_flexion_l	hip_adduction_l	hip_rotation_l	knee_angle_l	knee_angle_l_beta	ankle_angle_l	subtalar_angle_l	mtp_angle_l	L5_S1_Flex_Ext	L5_S1_Lat_Bending	L5_S1_axial_rotation	L4_L5_Flex_Ext	L4_L5_Lat_Bending	L4_L5_axial_rotation	L3_L4_Flex_Ext	L3_L4_Lat_Bending	L3_L4_axial_rotation	L2_L3_Flex_Ext	L2_L3_Lat_Bending	L2_L3_axial_rotation	L1_L2_Flex_Ext	L1_L2_Lat_Bending	L1_L2_axial_rotation	L1_T12_Flex_Ext	L1_T12_Lat_Bending	L1_T12_axial_rotation	Abs_r3	Abs_r2	Abs_r1	Abs_t1	Abs_t2	neck_flexion	neck_bending	neck_rotation	arm_flex_r	arm_add_r	arm_rot_r	elbow_flex_r	pro_sup_r	wrist_flex_r	wrist_dev_r	arm_flex_l	arm_add_l	arm_rot_l	elbow_flex_l	pro_sup_l	wrist_flex_l	wrist_dev_l
4.186441	13.173479	-21.427569	112.927039	-0.071752	0.854446	0.558374	33.708348	-0.350230	-8.970180	24.314996	0.424377	36.099111	-6.853748	0.000000	40.005397	-3.080723	0.397777	28.110576	0.490622	43.059136	17.514514	0.000000	-0.276579	-0.676246	-0.135180	-0.513635	-0.899407	-0.143628	-0.454392	-1.644225	-0.143628	-0.316102	-1.644225	-0.118282	-0.256831	-1.379001	-0.109834	-0.158037	-1.047505	-0.101385	-1.975576	-7.649832	-0.751829	0.000000	0.000000	15.086149	6.368732	-5.135313	-28.566935	-39.947693	55.605910	102.903400	88.857694	-59.134647	-23.569043	10.464823	-18.972973	102.906168	1.672799	2.035019	-15.279579	-19.064574
4.203390	13.317275	-21.850227	112.585804	-0.069964	0.851585	0.559397	34.468068	-0.207669	-8.805204	24.626824	0.429819	36.920225	-6.815038	0.000000	40.882334	-3.286410	0.410684	28.677959	0.500525	43.613939	17.467500	0.000000	-0.292934	-0.713673	-0.324915	-0.544008	-0.949185	-0.345222	-0.481262	-1.735225	-0.345222	-0.334795	-1.735225	-0.284301	-0.272019	-1.455322	-0.263993	-0.167383	-1.105479	-0.243686	-2.092401	-8.073212	-1.807080	0.000000	0.000000	15.423788	7.302087	-6.188883	-26.558466	-41.056860	58.335333	103.811341	89.086916	-61.954384	-23.824926	10.055682	-19.528177	102.061434	1.651952	2.127964	-15.742060	-18.321593
4.220339	13.514212	-22.228199	112.350116	-0.068778	0.849600	0.560285	35.057782	-0.049005	-8.806867	24.725265	0.431537	37.323582	-6.793254	0.000000	41.490337	-3.472398	0.570682	28.805314	0.502748	43.891565	17.413930	0.000000	-0.304923	-0.731149	-0.509278	-0.566273	-0.972429	-0.541108	-0.500958	-1.777717	-0.541108	-0.348497	-1.777717	-0.445619	-0.283152	-1.490960	-0.413789	-0.174233	-1.132550	-0.381959	-2.178036	-8.270908	-2.832453	0.000000	0.000000	15.745131	7.974471	-7.088804	-24.789823	-42.010557	60.956625	104.399348	89.344288	-65.419531	-24.111893	9.635340	-19.853743	101.952416	1.592670	2.182847	-16.284113	-17.474443
4.237288	13.763841	-22.554473	112.224101	-0.068187	0.848449	0.561026	35.471272	0.125605	-8.977833	24.617084	0.429649	37.319877	-6.819854	0.000000	41.828773	-3.640632	0.829503	28.513610	0.497656	43.915099	17.395450	0.000000	-0.312931	-0.728277	-0.679230	-0.581145	-0.968608	-0.721682	-0.514115	-1.770732	-0.721682	-0.357649	-1.770732	-0.594326	-0.290588	-1.485102	-0.551874	-0.178809	-1.128101	-0.509422	-2.235237	-8.238412	-3.777672	0.000000	0.000000	16.047844	8.358932	-7.832817	-23.354084	-42.748525	63.302822	104.627686	89.614918	-69.020239	-24.405677	9.244966	-19.941634	102.341677	1.500363	2.219558	-16.640112	-16.535234
4.254237	14.063150	-22.818456	112.241433	-0.068169	0.848025	0.561652	35.706835	0.299853	-9.315091	24.318803	0.424443	36.989911	-6.910149	0.000000	41.901990	-3.770543	1.227527	27.821485	0.485577	43.708627	17.377674	0.000000	-0.318777	-0.706531	-0.832886	-0.592000	-0.939686	-0.884942	-0.523718	-1.717859	-0.884942	-0.364330	-1.717859	-0.728775	-0.296016	-1.440757	-0.676720	-0.182149	-1.094416	-0.624665	-2.276991	-7.992417	-4.632264	0.000000	0.000000	16.307615	8.477597	-8.500378	-22.353635	-43.239933	65.145803	104.533191	89.848273	-71.679720	-24.641427	8.919263	-19.816779	103.146017	1.382081	2.241358	-16.680089	-15.637506
4.271186	14.400675	-23.034862	112.365949	-0.068580	0.848187	0.562218	35.796047	0.471806	-9.786833	23.852536	0.416305	36.422244	-7.033483	0.000000	41.767358	-3.870137	1.704113	26.823282	0.468155	43.333418	17.372110	0.000000	-0.322336	-0.671010	-0.961335	-0.598610	-0.892443	-1.021418	-0.529566	-1.631494	-1.021418	-0.368398	-1.631494	-0.841168	-0.299321	-1.368324	-0.781084	-0.184183	-1.039394	-0.721001	-2.302413	-7.590599	-5.346655	0.000000	0.000000	16.513106	8.441637	-9.174554	-21.821651	-43.469080	66.328150	104.145702	89.890084	-72.538374	-24.755613	8.691880	-19.510735	104.242871	1.255025	2.253041	-16.537642	-14.749983
4.288136	14.783358	-23.200542	112.595678	-0.069293	0.848780	0.562781	35.777468	0.641836	-10.394216	23.282156	0.406350	35.688733	-7.164928	0.000000	41.473253	-3.956018	2.226290	25.602750	0.446852	42.851558	17.402400	0.000000	-0.326388	-0.623801	-1.062622	-0.606135	-0.829655	-1.129036	-0.536223	-1.516710	-1.129036	-0.373029	-1.516710	-0.929794	-0.303084	-1.272055	-0.863380	-0.186498	-0.966268	-0.796966	-2.331357	-7.056563	-5.909983	0.000000	0.000000	16.679320	8.267465	-9.903775	-21.669959	-43.453069	67.009789	103.507888	89.722949	-72.149835	-24.735962	8.593684	-19.070312	105.630729	1.133084	2.303299	-16.290245	-13.928435
4.305085	15.133447	-23.339897	112.863726	-0.070109	0.849677	0.563305	35.683762	0.764095	-11.049507	22.670224	0.395670	34.891958	-7.256656	0.000000	41.026781	-3.990692	2.769114	24.197476	0.422326	42.290902	17.411153	0.000000	-0.331563	-0.577939	-1.143490	-0.615746	-0.768658	-1.214958	-0.544725	-1.405200	-1.214958	-0.378944	-1.405200	-1.000553	-0.307890	-1.178533	-0.929085	-0.189455	-0.895227	-0.857617	-2.368322	-6.537758	-6.359747	0.000000	0.000000	16.816112	8.037703	-10.635630	-21.704014	-43.237272	67.545921	102.746153	89.714685	-71.751983	-24.549288	8.589972	-18.598337	107.194784	1.030056	2.354094	-16.013841	-13.288386
4.322034	15.426904	-23.467208	113.141211	-0.070872	0.850730	0.563808	35.562113	0.842175	-11.649975	22.083406	0.385428	34.062335	-7.393598	0.000000	40.480169	-3.974146	3.298424	22.693272	0.396072	41.689493	17.404605	0.000000	-0.336899	-0.539331	-1.209563	-0.625655	-0.717311	-1.285161	-0.553492	-1.311330	-1.285161	-0.385042	-1.311330	-1.058368	-0.312845	-1.099805	-0.982770	-0.192504	-0.835424	-0.907173	-2.406437	-6.101025	-6.727229	0.000000	0.000000	16.927624	7.796499	-11.285552	-21.840909	-42.950346	68.088754	101.976065	89.886110	-72.185923	-24.475638	8.659813	-18.164469	108.806233	0.948369	2.430394	-15.712137	-12.825712
4.338983	15.631736	-23.591861	113.384540	-0.071467	0.851823	0.564273	35.439048	0.868385	-12.153541	21.572715	0.376515	33.235492	-7.555920	0.000000	39.862011	-3.903480	3.791428	21.149650	0.369131	41.078597	17.375744	0.000000	-0.341396	-0.513732	-1.264587	-0.634006	-0.683263	-1.343624	-0.560879	-1.249087	-1.343624	-0.390181	-1.249087	-1.106514	-0.317020	-1.047602	-1.027477	-0.195074	-0.795770	-0.948440	-2.438557	-5.811435	-7.033255	0.000000	0.000000	17.009666	7.584301	-11.765275	-22.119527	-42.609431	68.307529	101.247981	90.012941	-72.278117	-24.498415	8.767270	-17.827701	110.412075	0.881282	2.512122	-15.397559	-12.483603
4.355932	15.679129	-23.717348	113.529427	-0.071763	0.852914	0.564688	35.324917	0.819472	-12.468327	21.186916	0.369781	32.424957	-7.774339	0.000000	39.160631	-3.754719	4.181279	19.580581	0.341746	40.466402	17.334973	0.000000	-0.347202	-0.510236	-1.322724	-0.644789	-0.678614	-1.405394	-0.570419	-1.240588	-1.405394	-0.396817	-1.240588	-1.157383	-0.322412	-1.040473	-1.074713	-0.198391	-0.790356	-0.992043	-2.480031	-5.771893	-7.356592	0.000000	0.000000	17.068741	7.472073	-11.964852	-22.447151	-42.284020	68.167728	100.640843	89.936861	-71.209156	-24.586923	8.843036	-17.663459	111.760217	0.833900	2.583488	-15.090536	-12.265606
4.372881	15.598242	-23.847314	113.605159	-0.071791	0.853888	0.565087	35.233786	0.698715	-12.658091	20.933333	0.365356	31.643796	-8.020036	0.000000	38.447477	-3.535771	4.509355	18.080985	0.315573	39.884750	17.261540	0.000000	-0.352798	-0.525885	-1.389011	-0.655182	-0.699427	-1.475824	-0.579612	-1.278637	-1.475824	-0.403213	-1.278637	-1.215384	-0.327608	-1.072385	-1.128571	-0.201589	-0.814596	-1.041758	-2.520003	-5.948915	-7.725261	0.000000	0.000000	17.120093	7.448124	-11.942799	-22.782635	-41.977409	67.755776	100.091459	89.579902	-69.081532	-24.955364	8.870414	-17.671813	112.767063	0.805692	2.644072	-14.789106	-12.154864
4.389831	15.371217	-23.992673	113.576206	-0.071526	0.854690	0.565457	35.185897	0.505382	-12.661279	20.834618	0.363633	30.906500	-8.324433	0.000000	37.750103	-3.250645	4.708466	16.695967	0.291400	39.346901	17.179779	0.000000	-0.358263	-0.562312	-1.454078	-0.665330	-0.747875	-1.544958	-0.588590	-1.367205	-1.544958	-0.409459	-1.367205	-1.272318	-0.332683	-1.146666	-1.181438	-0.204711	-0.871021	-1.090558	-2.559036	-6.360983	-8.087145	0.000000	0.000000	17.195858	7.505108	-11.810248	-23.105974	-41.660303	67.177648	99.601416	88.992722	-66.235033	-25.376583	8.867269	-17.852151	113.427356	0.796098	2.667217	-14.529979	-12.182788
4.406780	15.056569	-24.130897	113.495773	-0.071076	0.855303	0.565862	35.162064	0.269677	-12.539591	20.851272	0.363923	30.206537	-8.717501	0.000000	37.106274	-2.925215	4.815386	15.473027	0.270055	38.868626	17.098257	0.000000	-0.365945	-0.610173	-1.528181	-0.679596	-0.811530	-1.623692	-0.601211	-1.483575	-1.623692	-0.418238	-1.483575	-1.337158	-0.339816	-1.244265	-1.241647	-0.209101	-0.945158	-1.146135	-2.613908	-6.902402	-8.499282	0.000000	0.000000	17.278905	7.602559	-11.630233	-23.309116	-41.386216	66.567404	99.168962	88.381592	-62.738455	-25.582787	8.827798	-18.160641	113.625262	0.805705	2.666534	-14.342811	-12.430737
4.423729	14.681108	-24.275696	113.362699	-0.070473	0.855690	0.566312	35.185739	0.005982	-12.295159	20.974653	0.366077	29.578456	-9.172166	0.000000	36.570754	-2.583348	4.811035	14.470626	0.252560	38.467514	17.023450	0.000000	-0.374301	-0.665403	-1.596571	-0.695114	-0.884986	-1.696357	-0.614938	-1.617860	-1.696357	-0.427788	-1.617860	-1.397000	-0.347576	-1.356889	-1.297214	-0.213875	-1.030709	-1.197428	-2.673592	-7.527170	-8.879650	0.000000	0.000000	17.367782	7.739864	-11.538001	-23.493140	-41.118418	65.824405	98.803243	87.812676	-58.563605	-25.306334	8.806037	-18.560080	113.466383	0.829193	2.648674	-14.210441	-12.936418
4.440678	14.289441	-24.417082	113.211347	-0.069801	0.855864	0.566847	35.255484	-0.264228	-11.961504	21.181566	0.369688	29.033909	-9.666102	0.000000	36.177664	-2.248820	4.699120	13.726472	0.239572	38.159406	16.964977	0.000000	-0.384652	-0.720515	-1.660761	-0.714337	-0.958285	-1.764558	-0.631944	-1.751860	-1.764558	-0.439618	-1.751860	-1.453166	-0.357188	-1.469274	-1.349368	-0.219790	-1.116078	-1.245571	-2.747528	-8.150608	-9.236653	0.000000	0.000000	17.445536	7.872489	-11.560303	-23.613532	-40.901402	65.041734	98.517350	87.218027	-53.851432	-24.504845	8.823705	-19.005042	113.156652	0.853493	2.605778	-14.196868	-13.693009
4.457627	13.910865	-24.555386	113.045611	-0.069093	0.855833	0.567446	35.369329	-0.515093	-11.536372	21.441360	0.374222	28.583230	-10.173414	0.000000	35.955531	-1.952382	4.464262	13.278846	0.231760	37.960479	16.937611	0.000000	-0.395685	-0.771314	-1.711568	-0.734826	-1.025847	-1.818541	-0.650071	-1.875372	-1.818541	-0.452228	-1.875372	-1.497622	-0.367433	-1.572863	-1.390649	-0.226094	-1.194765	-1.283676	-2.826337	-8.725254	-9.519228	0.000000	0.000000	17.483962	7.986424	-11.715533	-23.745182	-40.740831	64.155961	98.325923	86.557074	-48.634614	-23.133471	8.906659	-19.459432	112.810045	0.878742	2.566622	-14.332158	-14.719630
